<?xml version="1.0" encoding="utf-8"?>
<!-- Generator: Adobe Illustrator 21.0.2, SVG Export Plug-In . SVG Version: 6.00 Build 0)  -->
<svg version="1.1" id="Layer_1" xmlns="http://www.w3.org/2000/svg" xmlns:xlink="http://www.w3.org/1999/xlink" x="0px" y="0px"
	 viewBox="0 0 360 360" style="enable-background:new 0 0 360 360;" xml:space="preserve">
<style type="text/css">
	.st0{fill:#7CD1EF;}
	.st1{fill:none;stroke:#FFFFFF;stroke-width:5;stroke-miterlimit:10;}
	.st2{fill:none;stroke:#FFFFFF;stroke-width:4;stroke-miterlimit:10;}
	.st3{fill:#FFFFFF;stroke:#FFFFFF;stroke-width:3;stroke-miterlimit:10;}
</style>
<path class="st0" d="M202.6,214.3h-44c-6.9,0-12.6-5.7-12.6-12.6v-44c0-6.9,5.7-12.6,12.6-12.6h44c6.9,0,12.6,5.7,12.6,12.6v44
	C215.2,208.6,209.6,214.3,202.6,214.3z"/>
<path class="st1" d="M197.2,205.7h-33.1c-5.2,0-9.5-4.3-9.5-9.5v-33.1c0-5.2,4.3-9.5,9.5-9.5h33.1c5.2,0,9.5,4.3,9.5,9.5v33.1
	C206.7,201.5,202.4,205.7,197.2,205.7z"/>
<circle class="st2" cx="180.6" cy="179.5" r="12.8"/>
<path class="st3" d="M196.5,159.7c-4.1,0-4.1,6.3,0,6.3C200.6,166,200.6,159.7,196.5,159.7z"/>
</svg>
