<?xml version="1.0" encoding="utf-8"?>
<!-- Generator: Adobe Illustrator 21.0.2, SVG Export Plug-In . SVG Version: 6.00 Build 0)  -->
<svg version="1.1" id="Layer_1" xmlns="http://www.w3.org/2000/svg" xmlns:xlink="http://www.w3.org/1999/xlink" x="0px" y="0px"
	 viewBox="0 0 357 136" style="enable-background:new 0 0 357 136;" xml:space="preserve">
<style type="text/css">
	.st0{fill:#FFFFFF;stroke:#3BB2E6;stroke-width:2;stroke-miterlimit:10;}
	.st1{fill:#8ED1F3;}
	.st2{fill:#F9AE6C;}
</style>
<g>
	<circle class="st0" cx="129.4" cy="65.7" r="20.4"/>
	<path class="st1" d="M109.8,66.4c0-0.4,0-0.9,0-1.3V65c0-0.3,0-0.5,0-0.8c0.1-1.2,0.3-2.3,0.6-3.4c0.9-3.5,2.7-6.5,5.3-9
		c1.6-1.5,3.3-2.8,5.3-3.7c2.5-1.2,5.1-1.8,7.8-1.9c1,0,2,0,3,0.1c1.4,0.2,2.7,0.5,4,0.9c3.1,1.1,5.8,2.9,8,5.3
		c1.9,2.1,3.3,4.5,4.2,7.2c0.5,1.5,0.8,3.1,0.9,4.7c0,0.2,0,0.4,0,0.6c0,0.4,0,0.9,0,1.3v0.1c0,0.5-0.1,0.9-0.1,1.4
		c-0.2,1.4-0.5,2.9-0.9,4.2c-1.2,3.5-3.3,6.4-6.1,8.8c-3.1,2.5-6.6,4-10.6,4.3c-1.3,0.1-2.6,0.1-3.9,0c-1.5-0.2-2.9-0.5-4.3-1
		c-3.1-1.1-5.8-2.8-8-5.3c-1.9-2.1-3.4-4.5-4.2-7.2c-0.5-1.5-0.8-3.1-0.9-4.7C109.8,66.8,109.8,66.6,109.8,66.4z M131.9,48.8
		L131.9,48.8l-0.1-0.1c-0.2,0-0.4,0-0.6,0.1c-0.1,0-0.3,0-0.3-0.2c0-0.1,0.1-0.3,0.2-0.3c0.1,0,0.3,0,0.4,0c0.1,0,0.1,0,0.2,0h0.1
		c0,0,0-0.1-0.1-0.1s-0.2-0.1-0.3-0.1c-0.2,0-0.4-0.2-0.6-0.4c-0.2-0.2-0.4-0.4-0.7-0.5c-0.6-0.2-1.2-0.3-1.8-0.3
		c-1,0-2.1,0.2-3.1,0.4c-3,0.7-5.8,2-8.1,4c0,0,0,0-0.1,0.1l0,0c0.1,0,0.2,0,0.3,0c0.4-0.1,0.8-0.2,1.2-0.3h0.1
		c0.3-0.2,0.6-0.2,1-0.3c0.2,0,0.4-0.1,0.6-0.1c0.3-0.1,0.6-0.2,0.9,0c0.2,0.1,0.3,0,0.4-0.1s0.2-0.2,0.3-0.3
		c0.1-0.1,0.1-0.1,0.2-0.2c0.1-0.3,0.4-0.3,0.6-0.1c0.1,0.1,0.1,0.1,0.2,0s0.2-0.1,0.3-0.1c0,0,0.1,0,0.1,0.1s0,0.1-0.1,0.2H123l0,0
		c0.1,0,0.1,0.1,0.2,0.1s0.3,0,0.4-0.1c0.1,0,0.1-0.1,0.1-0.2c0-0.1,0-0.1,0.1-0.2c0.1,0,0.1,0,0.2-0.1c0.2-0.1,0.4-0.1,0.5,0.1
		l0.1,0.1l0.1,0.1c0,0.1-0.1,0.1-0.1,0.1s-0.1,0-0.1,0.1c-0.1,0.1-0.2,0.1-0.3,0.1c-0.1,0-0.1,0-0.2,0.1c-0.1,0-0.2,0.1-0.2,0
		c-0.1-0.1-0.2-0.1-0.3,0.1c-0.1,0.1-0.1,0.1-0.2,0.2c-0.1,0.1-0.2,0.2-0.3,0.2h-0.1c0,0,0,0,0,0.1c0.1,0,0.1-0.1,0.2-0.1h0.1V51
		c0,0,0,0-0.1,0.1c-0.2,0.2-0.5,0.3-0.7,0.3s-0.3,0.1-0.4,0.1c-0.2,0.1-0.3,0.2-0.3,0.3s-0.1,0.2-0.2,0.3c-0.5,0.6-0.2,1.3,0.4,1.5
		c0.2,0.1,0.5,0.1,0.7,0.2c0.2,0,0.5,0.1,0.7,0c0.5-0.1,1,0.3,1.1,0.8c0,0.2,0.1,0.5,0.2,0.7s0.4,0.2,0.5,0c0,0,0.1-0.1,0.1-0.2
		c0.1-0.2,0-0.4,0-0.6c-0.1-0.3,0-0.4,0.3-0.6c0.1-0.1,0.2-0.2,0.3-0.2c0.3-0.3,0.2-0.6-0.1-0.7c-0.2-0.1-0.2-0.4,0-0.5
		c0.1-0.1,0.1-0.2,0.1-0.3c0-0.2-0.1-0.4-0.1-0.6c0-0.1,0.1-0.2,0.2-0.2s0.3,0.1,0.4,0.1s0.2,0,0.3,0c0.3-0.1,0.6,0,0.9,0.2
		c0.1,0.1,0.2,0.1,0.3,0.2c0.2,0.1,0.3,0.2,0.3,0.4s0.1,0.3,0.2,0.3c0.2,0.1,0.4,0.1,0.6,0.1c0.1,0,0.3-0.1,0.3-0.3
		c0.1-0.1,0.2-0.2,0.3-0.2s0.2,0.1,0.2,0.3c0,0,0,0.1,0.1,0.1c0.2,0.1,0.3,0.3,0.3,0.5s0.2,0.3,0.4,0.3c0.1,0,0.3,0,0.4-0.1
		c0.5-0.2,1.1,0.2,1.1,0.7c0,0.2,0,0.3,0,0.5c0,0.4-0.3,0.7-0.6,0.6c-0.2,0-0.3,0-0.5,0.1c-0.3,0.2-0.6,0.2-0.9,0.2
		c-0.3-0.1-0.5-0.1-0.8,0c-0.2,0.1-0.5,0.2-0.7,0.2c-0.4,0.1-0.7,0.5-1,0.7c0,0,0,0.1-0.1,0.1v0.1l0,0c0.1,0,0.1-0.1,0.2-0.2
		c0.1-0.1,0.1-0.2,0.2-0.2c0.4-0.3,0.8-0.3,1.2-0.3c0.1,0,0.1,0.1,0.2,0.1c0.1,0.1,0,0.3-0.2,0.3c-0.1,0-0.1,0-0.2,0l0,0
		c0,0,0.1,0,0.1,0.1c0.1,0.1,0.2,0.1,0.2,0.3c0.1,0.2,0.2,0.3,0.4,0.4c0.1,0,0.3,0,0.4,0c0.1,0,0.2,0,0.2,0.1s0,0.2-0.2,0.2
		c-0.1,0-0.2,0-0.3,0c-0.2,0.1-0.5,0.1-0.6,0.4c-0.1,0.1-0.1,0.1-0.2,0.1c-0.1,0-0.1-0.1-0.2-0.2c0-0.1,0-0.2,0.1-0.2
		s0.2-0.1,0.3-0.1s0.1-0.1,0.2-0.1c-0.1-0.1-0.2-0.1-0.3,0s-0.3,0.1-0.4,0.2c-0.1,0-0.2,0.1-0.3,0.1s-0.2,0-0.3,0
		c-0.3,0.1-0.6,0.2-0.7,0.5c-0.2,0.3-0.4,0.6-0.7,0.8c-0.2,0.1-0.3,0.3-0.4,0.5c0,0.1-0.1,0.2-0.2,0.2c-0.2,0.1-0.3,0.2-0.3,0.4
		c0,0.1,0,0.2-0.1,0.3c-0.2,0.7-0.6,1.2-1.2,1.6c-0.3,0.2-0.5,0.4-0.4,0.7c0,0.2,0.1,0.3,0.1,0.5c0.1,0.4,0.2,0.7,0.2,1.1
		c0,0.1,0,0.2-0.1,0.2s-0.2,0-0.2,0c-0.3-0.2-0.4-0.5-0.5-0.9c0-0.1-0.1-0.3-0.1-0.4c-0.1-0.2-0.2-0.2-0.4-0.2
		c-0.1,0.1-0.3,0-0.4-0.1c-0.1,0-0.1-0.1-0.2-0.1c-0.2-0.1-0.4,0-0.6,0.1c-0.3,0.2-0.6,0.3-0.9,0.3c-0.8,0-1.3,0.4-1.5,1.1
		c0,0.1-0.1,0.2-0.1,0.2c-0.1,0.1-0.2,0.3-0.2,0.5c0,0.5,0.2,0.9,0.5,1.3c0.1,0.2,0.3,0.3,0.5,0.3s0.4,0,0.6,0
		c0.3,0,0.5-0.2,0.5-0.5c0-0.2,0.1-0.4,0.4-0.4c0.2,0,0.4,0,0.6,0c0,0,0.1,0,0.1,0.1v0.1c0,0.1-0.1,0.1-0.1,0.2
		c-0.2,0.3-0.3,0.7-0.3,1.1c0,0.2,0.1,0.3,0.2,0.3c0.2,0,0.4,0,0.6,0c0.5,0,0.8,0.4,0.7,0.8c-0.1,0.2-0.1,0.4,0,0.7
		c0.1,0.3,0.2,0.5,0.5,0.6c0.2,0.1,0.4,0,0.6-0.1c0.4-0.2,0.8,0.1,0.9,0.5c0,0.2,0,0.4,0,0.6c0,0.1,0.1,0.2,0.2,0.3h0.1v-0.1
		c0-0.2,0.1-0.4,0.3-0.5c0.2-0.1,0.4-0.1,0.6,0.1c0.1,0.1,0.2,0.1,0.3,0.1c0.2-0.1,0.3,0,0.5,0.1c0.1,0.1,0.3,0.1,0.4,0.1
		c0.2-0.1,0.3,0,0.5,0.1c0.1,0,0.2,0.1,0.3,0.1s0.2,0.1,0.2,0.2c0,0.2,0.2,0.3,0.3,0.3c0.2,0,0.4,0.1,0.5,0.3
		c0.2,0.3,0.5,0.5,0.9,0.4c0.6-0.1,1.2,0.3,1.4,0.9c0,0.1,0.1,0.2,0.2,0.3c0.1,0.1,0.1,0.2,0.1,0.3c-0.1,0.2-0.1,0.2,0.1,0.2
		c0.6,0,1.1,0.1,1.6,0.4c0.3,0.2,0.7,0.3,1.1,0.4c0.3,0,0.5,0.1,0.7,0.3c0.1,0.1,0.3,0.2,0.5,0.2s0.3,0.1,0.3,0.3c0,0.1,0,0.2,0,0.4
		c0,0.3-0.1,0.5-0.3,0.7c-0.2,0.1-0.3,0.2-0.5,0.4c-0.2,0.1-0.2,0.3-0.2,0.5c-0.1,0.6-0.3,1.2-0.7,1.7c-0.1,0.1-0.2,0.3-0.2,0.4
		c-0.1,0.3-0.3,0.4-0.6,0.5c-0.1,0-0.3,0-0.4,0.1c-0.2,0.1-0.5,0.1-0.7,0.2c-0.3,0.1-0.5,0.3-0.5,0.7c0,0.2-0.1,0.2-0.2,0.3
		c-0.1,0.1-0.2,0.1-0.3,0.2c-0.4,0.5-0.8,0.9-1.4,1.1c-0.2,0.1-0.3,0.1-0.4,0.3c-0.2,0.3-0.4,0.4-0.7,0.3c-0.2,0-0.5,0-0.6,0.2
		s-0.3,0.3-0.5,0.3c-0.3,0-0.4,0.2-0.6,0.4c0,0,0,0,0,0.1c-0.1,0.2,0,0.3,0.2,0.3c0.7,0,1.3,0,2,0c0.8,0,1.7-0.1,2.5-0.2
		c1.8-0.3,3.6-0.9,5.2-1.7c2-1,3.8-2.4,5.4-4c0.9-1,1.7-2.1,2.4-3.2v-0.1c0-0.3,0-0.7,0.1-1c0.1-0.6,0.2-1.1,0.5-1.6
		c0.2-0.3,0.3-0.6,0.3-0.9c0-0.5-0.1-0.9-0.3-1.3c-0.1-0.2-0.1-0.3-0.1-0.5s0.1-0.4,0.1-0.5c0.1-0.3,0-0.6-0.4-0.7
		c-0.1,0-0.1,0-0.1-0.1c-0.1-0.1-0.2-0.1-0.3-0.1s-0.2,0-0.2,0.1c-0.3,0.1-0.6,0.2-1,0.2c-0.3,0-0.7,0-1,0.1c-0.1,0-0.2,0-0.3-0.1
		c-0.2-0.2-0.5-0.5-0.7-0.7c-0.3-0.2-0.5-0.5-0.7-0.8c-0.1-0.2-0.3-0.4-0.4-0.5c-0.1-0.1-0.1-0.3-0.1-0.4c0.1-0.2,0.1-0.2,0-0.3
		c-0.1-0.1-0.1-0.2,0-0.3c0.2-0.1,0.2-0.3,0.2-0.5s0-0.4-0.1-0.6c-0.4-0.5-0.3-1.1,0.1-1.6c0.2-0.2,0.4-0.5,0.5-0.7
		c0.2-0.4,0.4-0.7,0.8-1v-0.1c-0.1-0.4,0.1-0.8,0.5-1c0.1-0.1,0.2-0.2,0.2-0.3c0,0,0-0.1,0.1-0.1c0,0,0.1,0,0.2,0
		c0.1,0,0.1,0.1,0.2,0.1c0.1,0,0.1,0,0.2,0.1c0.2,0.1,0.3,0.1,0.5,0c0.3-0.2,0.6-0.2,0.9-0.2c0.4,0.1,0.7,0.3,0.9,0.8
		c0.1,0.2,0.2,0.4,0.4,0.6c0.2,0.1,0.4,0.3,0.6,0.4c0.1,0.1,0.3,0.1,0.4,0c0.1-0.1,0.1-0.2,0.1-0.3v-0.1c-0.2-0.6-0.4-1.3-0.6-1.9
		c-0.1-0.2-0.2-0.4-0.4-0.6c-0.2-0.1-0.3-0.3-0.5-0.5l-0.1-0.1l0,0v0.1c0.1,0.1,0.2,0.3,0.3,0.4c0.1,0.2,0.3,0.3,0.4,0.5
		c0.1,0.1,0.1,0.1,0.2,0.2c0,0,0,0,0,0.1c0,0,0,0.1-0.1,0.1s-0.1,0.1-0.1,0.1v0.1c0,0,0,0.1-0.1,0.1l-0.1-0.1c0-0.1,0-0.2-0.1-0.2
		c-0.1-0.2-0.3-0.4-0.4-0.6c-0.2-0.2-0.4-0.4-0.4-0.7c0-0.1-0.1-0.2-0.2-0.2c-0.1,0-0.2,0-0.2,0.1c-0.1,0.1-0.2,0.1-0.3,0
		c0,0,0,0,0-0.1c0,0-0.1-0.1-0.1,0l-0.1,0.1c0,0.2,0,0.3-0.2,0.4c-0.1,0-0.1,0.1-0.1,0.1c0,0.2-0.1,0.3-0.1,0.5
		c0,0.3-0.2,0.4-0.5,0.4c-0.1,0-0.3,0-0.4,0.1c-0.1,0.1-0.2,0.1-0.3,0c-0.1-0.2-0.3-0.2-0.5-0.2c-0.1,0-0.2-0.1-0.2-0.2
		c0.1-0.2,0-0.3-0.1-0.4c-0.1-0.1-0.1-0.1,0-0.3s0.1-0.4,0-0.6v-0.1c0.1-0.1,0-0.2,0-0.2c0-0.1,0-0.2,0-0.2c0.1-0.1,0.1-0.1,0.2,0
		c0.1,0,0.1,0.1,0.2,0.1h0.1c0.1-0.1,0.2,0,0.2,0.1c0,0,0,0.1,0.1,0.1s0.2,0.1,0.4,0.1s0.3-0.1,0.3-0.3c-0.1-0.2-0.2-0.4-0.3-0.6
		c-0.1-0.2-0.3-0.3-0.5-0.3c-0.1,0-0.1-0.1-0.1-0.2c0-0.1,0.1-0.1,0.2-0.1c0.1,0,0.1,0.1,0.2,0.1c0.1,0,0.2,0,0.3,0s0.2-0.1,0.2-0.1
		c0.1-0.1,0.1-0.2,0.2-0.3c0.1,0,0.2,0,0.3,0c0,0,0.1,0,0.1-0.1v-0.1c0-0.1-0.1-0.1,0-0.2c0,0,0.1,0,0.2,0c0.1,0,0.1,0.1,0.2,0.1
		h0.1v-0.1c0-0.1-0.1-0.2-0.1-0.2c-0.7-1-1.5-1.9-2.5-2.8c-1.3-1.2-2.8-2.2-4.4-3c-0.2-0.1-0.2-0.1-0.3,0.1
		c-0.1,0.1-0.2,0.1-0.3,0.1c-0.2,0-0.3,0.1-0.3,0.2c-0.1,0.2-0.4,0.4-0.6,0.4c-0.1,0-0.2,0-0.3,0c-0.3,0-0.5,0.3-0.3,0.6
		c0.1,0.1,0,0.3-0.2,0.3h-0.1v0.1c0.2,0.3,0.2,0.5,0.1,0.8c-0.1,0.3-0.4,0.3-0.6,0.1c-0.1-0.1-0.1-0.1-0.2-0.2
		c-0.1-0.1-0.2-0.1-0.3-0.1s-0.2,0-0.3,0c-0.8,0.1-1.5-0.3-1.9-1c-0.1-0.3-0.3-0.5-0.6-0.6c-0.2-0.1-0.3-0.4-0.3-0.6
		c0.1-0.3,0.2-0.4,0.5-0.5C131.9,48.8,131.9,48.8,131.9,48.8z M125.9,84.1c0.1-0.2,0.2-0.4,0.1-0.6c0-0.1,0-0.2-0.1-0.3
		c-0.1-0.3-0.1-0.7,0.1-1c0.1-0.2,0.1-0.5,0.1-0.7s0-0.5,0.1-0.7c0.1-0.1,0.1-0.2,0.1-0.4c0.1-0.5,0.1-0.9,0-1.4
		c0-0.3-0.2-0.5-0.5-0.6c-1-0.4-1.7-1.1-2.1-2.1c-0.1-0.4-0.4-0.6-0.8-0.8c-0.1,0-0.1-0.1-0.1-0.2s0-0.1,0-0.2
		c-0.1-0.1-0.1-0.3,0.1-0.3c0.1,0,0.1-0.1,0.2-0.1c0.1-0.1,0.1-0.1,0-0.2H123c-0.1-0.1-0.2-0.2-0.1-0.3c0.1-0.1,0.2-0.3,0.2-0.5
		c0-0.1,0-0.2,0.1-0.2s0.2-0.1,0.2-0.2s0.1-0.1,0.2-0.2s0.1-0.1,0.2-0.2c0.1-0.2,0.1-0.4,0.1-0.6c-0.1-0.4,0-0.7,0.3-1
		c0.1-0.1,0.2-0.2,0.2-0.4c0-0.1,0.1-0.2,0.2-0.2s0.1,0,0.2-0.1c0.1,0,0.2-0.1,0.2-0.1c0.2-0.1,0.2-0.2,0.1-0.4
		c-0.1-0.1-0.2-0.1-0.3-0.1c-0.2,0-0.3,0.1-0.3,0.3c0,0.1,0,0.1-0.1,0.2c-0.1,0-0.1,0-0.2-0.1s-0.1-0.1-0.2-0.2
		c-0.3-0.2-0.7-0.4-1.1-0.5c-0.2-0.1-0.4-0.3-0.4-0.5c-0.1-0.4-0.3-0.6-0.7-0.7c-0.2-0.1-0.5-0.1-0.7-0.2s-0.4-0.2-0.5-0.4
		c-0.1-0.2-0.2-0.3-0.4-0.3c-0.1,0-0.2,0-0.3,0c-0.2,0.1-0.3,0-0.5-0.1c-0.1-0.1-0.2-0.2-0.3-0.2c-0.4-0.2-0.7-0.3-1.1-0.5
		c-0.3-0.1-0.6-0.4-0.6-0.8c-0.1-0.6-0.4-1.1-0.9-1.4c-0.1,0-0.1-0.1-0.1-0.2c0-0.2-0.1-0.3-0.2-0.4c-0.3-0.3-0.5-0.6-0.6-1v-0.1
		c0-0.1-0.1-0.1-0.2-0.1s-0.1,0.1-0.1,0.2c0,0.3,0,0.6,0.3,0.8l0.1,0.1c0.2,0.3,0.3,0.6,0.4,0.9c0,0.1,0.1,0.2,0.1,0.3
		c0,0.1,0.1,0.1,0.2,0.2v0.1h-0.1c-0.2-0.2-0.4-0.4-0.4-0.7c0-0.2-0.2-0.4-0.4-0.5c-0.1,0-0.1-0.1-0.1-0.2c0-0.2,0-0.4-0.2-0.6
		c-0.1-0.1-0.2-0.2-0.2-0.4c0-0.1,0-0.3-0.1-0.4c0-0.2-0.1-0.3-0.2-0.4c-0.1-0.1-0.2-0.1-0.3-0.1c-0.1-0.1-0.2-0.2-0.2-0.3
		c0-0.2-0.1-0.5-0.1-0.7c-0.3-0.8-0.3-1.6,0.1-2.4c0-0.1,0-0.1,0-0.2c0.1-0.5,0-1-0.3-1.4c-0.1-0.2-0.2-0.4-0.2-0.6
		c0-0.1,0-0.1-0.1-0.2c-0.1-0.1-0.2-0.1-0.3,0l-0.1,0.1c-0.2,0.4-0.5,0.8-0.7,1.3c-1.3,2.8-1.9,5.8-1.7,9c0.1,1.2,0.3,2.4,0.6,3.6
		c0.9,3.5,2.7,6.5,5.3,9c2.4,2.3,5.2,3.8,8.4,4.5C125.3,84,125.6,84,125.9,84.1z"/>
</g>
<g>
	<g>
		<path class="st2" d="M161.1,47.8V61h-2.9V47.8H161.1z"/>
		<path class="st2" d="M166.6,47.8l5.5,8.9l0,0v-8.9h2.7V61h-2.9l-5.5-8.8l0,0V61h-2.7V47.8H166.6z"/>
		<path class="st2" d="M186.7,47.8v2.4h-6.4v3.1h5.5v2.3h-5.5V61h-2.9V47.8H186.7z"/>
		<path class="st2" d="M188.2,51.7c0.3-0.8,0.7-1.6,1.3-2.2c0.6-0.6,1.2-1.1,2-1.5s1.7-0.5,2.7-0.5s1.9,0.2,2.7,0.5
			c0.8,0.4,1.5,0.9,2,1.5c0.6,0.6,1,1.4,1.3,2.2s0.4,1.8,0.4,2.7c0,1-0.1,1.9-0.4,2.7c-0.3,0.8-0.7,1.6-1.3,2.2
			c-0.6,0.6-1.2,1.1-2,1.5s-1.7,0.5-2.7,0.5s-1.9-0.2-2.7-0.5c-0.8-0.4-1.5-0.8-2-1.5c-0.6-0.6-1-1.3-1.3-2.2
			c-0.3-0.8-0.4-1.7-0.4-2.7C187.8,53.5,187.9,52.6,188.2,51.7z M190.9,56.1c0.1,0.5,0.3,1,0.6,1.4s0.7,0.8,1.1,1
			c0.5,0.3,1,0.4,1.7,0.4s1.2-0.1,1.7-0.4c0.5-0.3,0.8-0.6,1.1-1s0.5-0.9,0.6-1.4s0.2-1.1,0.2-1.6c0-0.6-0.1-1.1-0.2-1.7
			c-0.1-0.5-0.3-1-0.6-1.5c-0.3-0.4-0.7-0.8-1.1-1c-0.5-0.3-1-0.4-1.7-0.4s-1.2,0.1-1.7,0.4c-0.5,0.3-0.8,0.6-1.1,1
			s-0.5,0.9-0.6,1.5c-0.1,0.5-0.2,1.1-0.2,1.7C190.7,55,190.8,55.6,190.9,56.1z"/>
		<path class="st2" d="M209.9,47.8c0.6,0,1.1,0.1,1.6,0.3s0.9,0.5,1.2,0.8s0.6,0.7,0.8,1.2c0.2,0.4,0.3,0.9,0.3,1.4
			c0,0.8-0.2,1.4-0.5,2s-0.9,1-1.6,1.3l0,0c0.4,0.1,0.7,0.2,0.9,0.5c0.2,0.2,0.4,0.4,0.6,0.7c0.1,0.3,0.3,0.6,0.3,0.9s0.1,0.7,0.1,1
			c0,0.2,0,0.5,0,0.7c0,0.3,0,0.6,0.1,0.9c0,0.3,0.1,0.6,0.1,0.8c0.1,0.3,0.2,0.5,0.3,0.7h-2.9c-0.2-0.4-0.3-0.9-0.3-1.5
			s-0.1-1.1-0.2-1.7c-0.1-0.7-0.3-1.2-0.6-1.5s-0.8-0.5-1.6-0.5h-2.9V61h-2.9V47.8H209.9z M208.8,53.8c0.7,0,1.2-0.1,1.5-0.4
			c0.3-0.3,0.5-0.8,0.5-1.4c0-0.6-0.2-1.1-0.5-1.4c-0.3-0.3-0.8-0.4-1.5-0.4h-3.2v3.7L208.8,53.8L208.8,53.8z"/>
		<path class="st2" d="M220.2,47.8l3.1,9.1l0,0l2.9-9.1h4.1V61h-2.7v-9.4l0,0l-3.2,9.4h-2.2l-3.2-9.3l0,0V61h-2.7V47.8H220.2z"/>
		<path class="st2" d="M239.5,47.8l4.9,13.2h-3l-1-2.9h-4.9l-1,2.9h-2.9l5-13.2H239.5z M239.6,55.9l-1.7-4.8l0,0l-1.7,4.8H239.6z"/>
		<path class="st2" d="M242.8,50.3v-2.4h10.8v2.4h-4V61h-2.9V50.3H242.8z"/>
		<path class="st2" d="M258.1,47.8V61h-2.9V47.8H258.1z"/>
		<path class="st2" d="M260.5,51.7c0.3-0.8,0.7-1.6,1.3-2.2c0.6-0.6,1.2-1.1,2-1.5s1.7-0.5,2.7-0.5s1.9,0.2,2.7,0.5
			c0.8,0.4,1.5,0.9,2,1.5c0.6,0.6,1,1.4,1.3,2.2s0.4,1.8,0.4,2.7c0,1-0.1,1.9-0.4,2.7s-0.7,1.6-1.3,2.2c-0.6,0.6-1.2,1.1-2,1.5
			s-1.7,0.5-2.7,0.5s-1.9-0.2-2.7-0.5c-0.8-0.4-1.5-0.8-2-1.5c-0.6-0.6-1-1.3-1.3-2.2c-0.3-0.8-0.4-1.7-0.4-2.7
			C260.1,53.5,260.2,52.6,260.5,51.7z M263.2,56.1c0.1,0.5,0.3,1,0.6,1.4c0.3,0.4,0.7,0.8,1.1,1c0.5,0.3,1,0.4,1.7,0.4
			s1.2-0.1,1.7-0.4c0.5-0.3,0.8-0.6,1.1-1c0.3-0.4,0.5-0.9,0.6-1.4s0.2-1.1,0.2-1.6c0-0.6-0.1-1.1-0.2-1.7c-0.1-0.5-0.3-1-0.6-1.5
			c-0.3-0.4-0.7-0.8-1.1-1c-0.5-0.3-1-0.4-1.7-0.4s-1.2,0.1-1.7,0.4c-0.5,0.3-0.8,0.6-1.1,1c-0.3,0.4-0.5,0.9-0.6,1.5
			c-0.1,0.5-0.2,1.1-0.2,1.7C263,55,263,55.6,263.2,56.1z"/>
		<path class="st2" d="M277.9,47.8l5.5,8.9l0,0v-8.9h2.7V61h-2.9l-5.5-8.8l0,0V61H275V47.8H277.9z"/>
	</g>
</g>
<g>
	<path class="st1" d="M163.3,68.1l3.8,11.3l0,0l3.6-11.3h5.1v16.4h-3.4V72.8l0,0l-4,11.6h-2.8l-4-11.5l0,0v11.5h-3.4V68.1H163.3z"/>
	<path class="st1" d="M182.7,68.1v16.4h-3.6V68.1H182.7z"/>
	<path class="st1" d="M195.6,84.3c-0.8,0.3-1.6,0.5-2.4,0.5c-1.3,0-2.4-0.2-3.4-0.7c-1-0.4-1.9-1-2.5-1.8c-0.7-0.8-1.2-1.7-1.6-2.7
		c-0.4-1-0.6-2.1-0.6-3.3c0-1.2,0.2-2.4,0.6-3.4c0.4-1,0.9-2,1.6-2.7c0.7-0.8,1.5-1.4,2.5-1.8s2.1-0.7,3.4-0.7
		c0.8,0,1.7,0.1,2.4,0.4c0.8,0.3,1.5,0.6,2.1,1.1s1.2,1.1,1.6,1.8c0.4,0.7,0.7,1.5,0.8,2.5h-3.4c-0.2-0.9-0.6-1.6-1.2-2.1
		c-0.6-0.5-1.4-0.7-2.2-0.7s-1.5,0.2-2.1,0.5s-1,0.7-1.4,1.3c-0.4,0.5-0.6,1.1-0.8,1.8c-0.2,0.7-0.2,1.4-0.2,2.1s0.1,1.4,0.2,2
		c0.2,0.7,0.4,1.2,0.8,1.8c0.4,0.5,0.8,0.9,1.4,1.3c0.6,0.3,1.3,0.5,2.1,0.5c1.2,0,2.1-0.3,2.8-0.9s1-1.5,1.1-2.6h-3.6v-2.7h6.9v8.9
		h-2.3l-0.4-1.9C197.1,83.4,196.4,84,195.6,84.3z"/>
	<path class="st1" d="M212.1,68.1c0.7,0,1.4,0.1,2,0.4c0.6,0.2,1.1,0.6,1.5,1s0.7,0.9,1,1.4c0.2,0.5,0.3,1.1,0.3,1.8
		c0,1-0.2,1.8-0.6,2.5c-0.4,0.7-1.1,1.2-2,1.6l0,0c0.4,0.1,0.8,0.3,1.1,0.6c0.3,0.3,0.5,0.6,0.7,0.9s0.3,0.7,0.4,1.1
		c0.1,0.4,0.1,0.8,0.2,1.2c0,0.3,0,0.6,0,0.9c0,0.4,0,0.7,0.1,1.1c0,0.4,0.1,0.7,0.2,1c0.1,0.3,0.2,0.6,0.4,0.8h-3.6
		c-0.2-0.5-0.3-1.1-0.4-1.9c0-0.7-0.1-1.4-0.2-2.1c-0.1-0.9-0.4-1.5-0.8-1.9c-0.4-0.4-1-0.6-2-0.6h-3.6v6.4h-3.6V68.1H212.1z
		 M210.9,75.5c0.8,0,1.4-0.2,1.9-0.6c0.4-0.4,0.6-1,0.6-1.8s-0.2-1.4-0.6-1.7c-0.4-0.4-1-0.5-1.9-0.5h-4v4.6H210.9z"/>
	<path class="st1" d="M228.1,68.1l6.1,16.4h-3.7l-1.2-3.7h-6.1l-1.3,3.7h-3.6l6.2-16.4H228.1z M228.3,78.1l-2.1-6l0,0l-2.1,6H228.3z
		"/>
	<path class="st1" d="M232.2,71.1v-3h13.4v3h-4.9v13.4h-3.6V71.1H232.2z"/>
	<path class="st1" d="M251.2,68.1v16.4h-3.6V68.1H251.2z"/>
	<path class="st1" d="M254.2,72.9c0.4-1,0.9-2,1.6-2.7c0.7-0.8,1.5-1.4,2.5-1.8s2.1-0.7,3.4-0.7s2.4,0.2,3.4,0.7
		c1,0.4,1.8,1.1,2.5,1.8s1.2,1.7,1.6,2.7s0.6,2.2,0.6,3.4c0,1.2-0.2,2.3-0.6,3.3s-0.9,1.9-1.6,2.7s-1.5,1.4-2.5,1.8
		s-2.1,0.7-3.4,0.7s-2.4-0.2-3.4-0.7c-1-0.4-1.9-1-2.5-1.8c-0.7-0.8-1.2-1.7-1.6-2.7c-0.4-1-0.6-2.1-0.6-3.3
		C253.6,75.1,253.8,74,254.2,72.9z M257.5,78.3c0.2,0.7,0.4,1.2,0.8,1.8c0.4,0.5,0.8,0.9,1.4,1.3c0.6,0.3,1.3,0.5,2.1,0.5
		c0.8,0,1.5-0.2,2.1-0.5s1-0.7,1.4-1.3c0.4-0.5,0.6-1.1,0.8-1.8c0.2-0.7,0.2-1.3,0.2-2s-0.1-1.4-0.2-2.1c-0.2-0.7-0.4-1.3-0.8-1.8
		s-0.8-1-1.4-1.3s-1.3-0.5-2.1-0.5c-0.8,0-1.5,0.2-2.1,0.5s-1,0.7-1.4,1.3c-0.4,0.5-0.6,1.1-0.8,1.8c-0.2,0.7-0.2,1.4-0.2,2.1
		S257.3,77.7,257.5,78.3z"/>
	<path class="st1" d="M275.8,68.1l6.9,11l0,0v-11h3.4v16.4h-3.6l-6.8-11l0,0v11h-3.4V68.1H275.8z"/>
</g>
</svg>
